<?xml version="1.0" encoding="UTF-8" standalone="no"?>
<!-- Created with Inkscape (http://www.inkscape.org/) -->

<svg
   xmlns:dc="http://purl.org/dc/elements/1.1/"
   xmlns:cc="http://creativecommons.org/ns#"
   xmlns:rdf="http://www.w3.org/1999/02/22-rdf-syntax-ns#"
   xmlns:svg="http://www.w3.org/2000/svg"
   xmlns="http://www.w3.org/2000/svg"
   xmlns:sodipodi="http://sodipodi.sourceforge.net/DTD/sodipodi-0.dtd"
   xmlns:inkscape="http://www.inkscape.org/namespaces/inkscape"
   width="210mm"
   height="297mm"
   viewBox="0 0 210 297"
   version="1.1"
   id="svg8"
   inkscape:version="0.92.4 (5da689c313, 2019-01-14)"
   sodipodi:docname="drawing.svg">
  <defs
     id="defs2" />
  <sodipodi:namedview
     id="base"
     pagecolor="#ffffff"
     bordercolor="#666666"
     borderopacity="1.0"
     inkscape:pageopacity="0.0"
     inkscape:pageshadow="2"
     inkscape:zoom="0.49497475"
     inkscape:cx="690.17407"
     inkscape:cy="696.4036"
     inkscape:document-units="mm"
     inkscape:current-layer="layer1"
     showgrid="false"
     inkscape:window-width="1366"
     inkscape:window-height="745"
     inkscape:window-x="-8"
     inkscape:window-y="-8"
     inkscape:window-maximized="1" />
  <metadata
     id="metadata5">
    <rdf:RDF>
      <cc:Work
         rdf:about="">
        <dc:format>image/svg+xml</dc:format>
        <dc:type
           rdf:resource="http://purl.org/dc/dcmitype/StillImage" />
        <dc:title></dc:title>
      </cc:Work>
    </rdf:RDF>
  </metadata>
  <g
     inkscape:label="Layer 1"
     inkscape:groupmode="layer"
     id="layer1">
    <path
       style="fill:#000000;fill-opacity:1;stroke-width:1.00157475;stroke-linejoin:round;stroke-miterlimit:4;stroke-dasharray:none"
       d="M 518.60547 353.10938 C 479.81549 353.18548 439.09956 388.41637 409.07031 388.44727 C 377.03264 388.44504 318.94128 347.8872 280.79688 354.02148 C 205.23709 362.6597 163.59562 389.88778 163.5957 486.21289 C 163.71559 577.3085 221.46475 768.2412 312.55664 767.41016 C 346.77646 767.09797 359.13228 740.71866 393.35352 740.68555 C 427.61187 740.7309 451.59866 768.80252 485.85547 769.12695 C 546.88498 769.70497 590.82988 683.02725 613.22656 598.33008 A 95.964488 95.964488 0 0 1 547.50195 507.33594 A 95.964488 95.964488 0 0 1 619.60352 414.46289 C 603.88642 372.87694 571.21945 357.4537 526.33398 353.58398 C 523.76885 353.25572 521.19147 353.1043 518.60547 353.10938 z "
       transform="scale(0.26458333)"
       id="path41" />
    <path
       style="fill:#000000;fill-opacity:1;stroke-width:0.26499999;stroke-linejoin:round;stroke-miterlimit:4;stroke-dasharray:none"
       d="m 136.123,52.667913 a 23.740291,33.085298 40.267337 0 0 -29.14654,36.577683 23.740291,33.085298 40.267337 0 0 0.66452,7.035129 23.740291,33.085298 40.267337 0 0 3.80963,-0.819001 23.740291,33.085298 40.267337 0 0 29.1465,-36.577012 23.740291,33.085298 40.267337 0 0 -0.66381,-7.035997 23.740291,33.085298 40.267337 0 0 -3.8103,0.819198 z"
       id="path3754"
       inkscape:connector-curvature="0" />
  </g>
</svg>
