<?xml version="1.0" encoding="UTF-8" standalone="no"?>
<!-- Created with Inkscape (http://www.inkscape.org/) -->

<svg
   xmlns:dc="http://purl.org/dc/elements/1.1/"
   xmlns:cc="http://creativecommons.org/ns#"
   xmlns:rdf="http://www.w3.org/1999/02/22-rdf-syntax-ns#"
   xmlns:svg="http://www.w3.org/2000/svg"
   xmlns="http://www.w3.org/2000/svg"
   xmlns:sodipodi="http://sodipodi.sourceforge.net/DTD/sodipodi-0.dtd"
   xmlns:inkscape="http://www.inkscape.org/namespaces/inkscape"
   width="210mm"
   height="297mm"
   viewBox="0 0 210 297"
   version="1.1"
   id="svg8"
   inkscape:version="0.92.4 (5da689c313, 2019-01-14)"
   sodipodi:docname="Dear_on_hil.svg">
  <defs
     id="defs2">
    <meshgradient
       inkscape:collect="always"
       id="meshgradient2345"
       gradientUnits="userSpaceOnUse"
       x="7.0813446"
       y="5.0166016"
       gradientTransform="translate(1.2126953e-6,1.8438721e-6)">
      <meshrow
         id="meshrow2347">
        <meshpatch
           id="meshpatch2349">
          <stop
             path="c 65.2791,0  130.558,0  195.837,0"
             style="stop-color:#ffcc00;stop-opacity:1"
             id="stop2351" />
          <stop
             path="c 0,95.6556  0,191.311  0,286.967"
             style="stop-color:#ffcc00;stop-opacity:1"
             id="stop2353" />
          <stop
             path="c -65.2791,0  -130.558,0  -195.837,0"
             style="stop-color:#ff2a2a;stop-opacity:1"
             id="stop2355" />
          <stop
             path="c 0,-95.6556  0,-191.311  0,-286.967"
             style="stop-color:#960094;stop-opacity:1"
             id="stop2357" />
        </meshpatch>
      </meshrow>
    </meshgradient>
    <filter
       inkscape:collect="always"
       style="color-interpolation-filters:sRGB"
       id="filter2495"
       x="-0.1092"
       width="1.2184"
       y="-0.1092"
       height="1.2184">
      <feGaussianBlur
         inkscape:collect="always"
         stdDeviation="1.9994473"
         id="feGaussianBlur2497" />
    </filter>
  </defs>
  <sodipodi:namedview
     id="base"
     pagecolor="#ffffff"
     bordercolor="#666666"
     borderopacity="1.0"
     inkscape:pageopacity="0.0"
     inkscape:pageshadow="2"
     inkscape:zoom="0.17881264"
     inkscape:cx="-1608.9764"
     inkscape:cy="211.81559"
     inkscape:document-units="mm"
     inkscape:current-layer="layer1"
     showgrid="false"
     inkscape:snap-page="true"
     inkscape:snap-grids="false"
     inkscape:snap-to-guides="false"
     inkscape:snap-object-midpoints="true"
     inkscape:snap-others="false"
     inkscape:object-nodes="false"
     inkscape:snap-nodes="false"
     inkscape:snap-global="false"
     inkscape:window-width="1366"
     inkscape:window-height="745"
     inkscape:window-x="-8"
     inkscape:window-y="-8"
     inkscape:window-maximized="1" />
  <metadata
     id="metadata5">
    <rdf:RDF>
      <cc:Work
         rdf:about="">
        <dc:format>image/svg+xml</dc:format>
        <dc:type
           rdf:resource="http://purl.org/dc/dcmitype/StillImage" />
        <dc:title></dc:title>
      </cc:Work>
    </rdf:RDF>
  </metadata>
  <g
     inkscape:label="Layer 1"
     inkscape:groupmode="layer"
     id="layer1"
     style="display:inline">
    <g
       id="g894">
      <rect
         y="5.0166016"
         x="7.0813446"
         height="286.9668"
         width="195.83731"
         id="rect815"
         style="opacity:0.98000004;fill:url(#meshgradient2345);fill-opacity:1;stroke:#ffff00;stroke-width:2.6650002;stroke-linejoin:miter;stroke-miterlimit:4;stroke-dasharray:none;stroke-opacity:0;paint-order:markers stroke fill" />
      <g
         id="g857"
         style="display:inline"
         transform="translate(0.36731138,0.5864827)">
        <path
           style="display:inline;fill:#000000;fill-opacity:0.94709018;stroke:#000000;stroke-width:0.26458332px;stroke-linecap:butt;stroke-linejoin:miter;stroke-opacity:0.14814818"
           d="m 7.2676899,262.33267 c -0.4674324,-13.27936 1.5136586,-9.28711 3.0451081,-13.9573 1.53145,-4.67019 1.601344,-0.58287 2.935874,-6.17639 1.33453,-5.59352 1.725614,-1.97781 0.817304,-7.47201 -0.90831,-5.4942 2.15323,-7.77634 1.60361,-14.43256 -0.54961,-6.65622 14.321159,-5.18647 15.022939,-13.07968 0.70178,-7.89321 7.449365,-17.85634 7.449365,-17.85634 0,0 5.965969,-12.23113 11.845909,-10.09298 5.87992,2.13816 16.055062,-4.6067 26.112632,-4.33843 10.05756,0.26827 14.630478,4.27043 23.133348,0.9665 8.502871,-3.30392 14.523741,-4.77666 18.800051,-4.77666 4.27632,0 1.06908,-1.33635 14.96708,0.80181 9.35444,0.80181 1.33635,-2.13816 26.99423,0.53453 25.65787,2.6727 42.32447,-3.74177 42.32447,-3.74177 0.65665,110.65111 1.05325,76.56787 0.17344,122.8645 -195.5257569,0.40268 -0.13493,-0.0767 -195.7431772,0.49024 0.5751914,-23.46345 -0.2919869,-14.60947 0.5178171,-29.73346 z"
           id="path2426"
           inkscape:connector-curvature="0"
           sodipodi:nodetypes="czzzzzczzzzczcccc" />
        <path
           style="display:inline;fill:#000000;fill-opacity:0.83597885;stroke:#000000;stroke-width:0.26458332px;stroke-linecap:butt;stroke-linejoin:miter;stroke-opacity:1"
           d="m 126.85703,183.27478 c 0.32963,-2.09966 1.95554,-3.7834 2.72226,-5.76563 0.49344,-1.27572 0.92745,-2.58361 1.201,-3.92383 0.16104,-0.789 0.1864,-1.59997 0.25477,-2.40234 0.0477,-0.55968 0.0121,-1.12824 0.10838,-1.68164 0.0904,-0.51992 0.1792,-1.0233 0.43751,-1.52148 0.32462,-0.62604 0.71371,-1.21709 1.04088,-1.8418 0.36654,-0.69991 0.75786,-1.39279 1.03198,-2.1338 0.18537,-0.50111 0.285,-1.03012 0.40921,-1.54979 0.17769,-0.74342 0.25393,-1.51216 0.4804,-2.24219 0.1454,-0.4687 0.35719,-0.54662 0.56047,-0.99327 0.0247,-0.0543 0.1086,-0.47579 0.0801,-0.52821 -0.81267,-1.49339 -2.48218,-2.37801 -3.76313,-3.52344 -1.07256,-0.95907 -2.34819,-1.70871 -3.28274,-2.80273 -0.63034,-0.73789 -1.27799,-1.48788 -1.83266,-2.28425 -0.48483,-0.69612 -0.93696,-1.44297 -1.34781,-2.1978 -0.24012,-0.44118 -0.44919,-0.89903 -0.65108,-1.35897 -0.28596,-0.65149 -0.5413,-1.31621 -0.79262,-1.98184 -0.3184,-0.84332 -0.75264,-1.65973 -0.90585,-2.54806 -0.15718,-0.9114 -0.26037,-1.90258 -0.25477,-2.85951 0.006,-1.03387 0.16068,-2.06314 0.31139,-3.08599 0.10091,-0.68481 0.27367,-1.39499 0.39631,-2.09508 0.10227,-0.58378 0.17755,-1.15321 0.28308,-1.75534 0.11949,-0.68182 0.17868,-1.25054 0.25477,-2.20832 0.0761,-0.95778 0.35948,-1.94774 0.56615,-2.91613 0.14764,-0.69176 0.26087,-1.39461 0.48123,-2.06676 0.17912,-0.54636 0.5638,-1.02224 0.67939,-1.58547 0.0607,-0.29583 0.30195,-0.90695 0,-0.90598 -0.4014,0.002 -1.08422,-0.39751 -1.58523,-0.67949 -0.56592,-0.31851 -1.09988,-0.701 -1.58524,-1.13247 -0.41938,-0.37281 -0.85258,-0.73191 -1.24555,-1.13248 -0.32723,-0.33357 -0.75212,-0.70831 -1.07569,-1.04753 -0.23968,-0.25127 -0.56616,-0.76443 -0.56616,-0.76443 0,0 -0.18171,-0.32521 -0.28308,-0.4813 -0.13263,-0.20425 -0.29586,-0.38783 -0.42461,-0.59455 -0.14733,-0.23655 -0.29409,-0.47687 -0.39631,-0.73611 -0.13603,-0.34497 -0.22243,-0.71002 -0.28308,-1.07585 -0.0433,-0.26135 -0.0719,-0.52826 -0.0566,-0.79274 0.0234,-0.40373 0.11455,-0.56785 0.16903,-0.85233 0.0472,-0.2464 0.0724,-0.62013 0.13668,-0.74012 0.12466,-0.23298 0.2402,-0.56055 0.56047,-0.56055 0.32027,0 0.94706,0.88283 1.41691,1.32816 0.57157,0.54175 1.10292,1.12792 1.70569,1.63473 0.86214,0.72488 1.73408,1.45979 2.63733,2.1435 0.60014,0.45428 1.13892,1.04298 1.84639,1.29986 0.30209,0.10968 0.77227,0.36051 1.07403,0.24995 0.17721,-0.0649 0.25048,-0.21523 0.2871,-0.40039 0.0674,-0.34041 -0.24008,-0.76447 -0.40033,-1.13081 -0.22967,-0.52506 -0.46827,-1.05464 -0.80067,-1.52147 -0.33954,-0.47687 -0.68415,-0.85683 -1.03116,-1.28126 -0.37337,-0.45667 -0.72192,-0.93601 -1.13064,-1.36133 -0.49762,-0.51782 -1.0442,-0.98823 -1.60132,-1.4414 -0.38515,-0.31328 -0.79884,-0.58975 -1.201,-0.88086 -0.37198,-0.26926 -0.74799,-0.53287 -1.12094,-0.80078 -0.4813,-0.34574 -1.08291,-0.80564 -1.24304,-1.12596 -0.16014,-0.3203 -0.75862,-0.95607 -0.91876,-1.27639 -0.16012,-0.3203 -0.49946,-1.09392 -0.56046,-1.68163 -0.0721,-0.69489 0.24187,-1.42058 0.46666,-2.08204 0.20033,-0.58945 0.90419,-1.60156 0.90419,-1.60156 0,0 0.2428,-0.46804 0.31055,-0.7207 0.11833,-0.44132 0.14858,-0.90457 0.16013,-1.361325 0.0102,-0.40115 0.12002,-0.787329 0.23132,-1.172855 0.10071,-0.348815 0.22333,-0.604734 0.32915,-0.909177 0.16628,-0.478372 0.39928,-0.941481 0.4804,-1.441403 0.047,-0.289834 0,-0.880864 0,-0.880864 0,0 0.32027,-0.40039 0.64054,-0.16015 0.32026,0.240233 1.18642,1.912996 1.18642,1.912996 0,0 0.36248,-1.126384 0.49497,-1.512605 0.15494,-0.451652 0.46635,-0.962083 0.66885,-1.394498 0.1977,-0.422153 0.31656,-0.798467 0.53215,-1.168011 0.18294,-0.313587 0.34303,-0.672825 0.64054,-0.880855 0.15924,-0.111345 0.37237,-0.208903 0.56046,-0.160158 0.2923,0.07576 0.31279,0.262648 0.38577,0.555693 0.10638,0.427118 -0.0146,0.654359 -0.13183,1.347583 -0.20218,0.608301 -0.38791,1.078326 -0.5742,1.620163 -0.13723,0.39911 -0.23042,0.814848 -0.40034,1.201171 -0.11064,0.251554 -0.26782,0.479956 -0.40033,0.720706 -0.16127,0.292994 -0.44352,0.548438 -0.4804,0.880855 -0.0214,0.19314 0.05,0.400475 0.16013,0.560548 0.15132,0.219886 0.42266,0.156429 0.64053,0.310604 0.15711,0.111168 0.16902,0.63173 0.16902,0.63173 0,0 -0.12231,0.508572 -0.2402,0.739312 -0.10526,0.20601 -0.52239,0.40353 -0.6923,0.56054 -0.29921,0.2765 -0.61855,0.34057 -0.75778,0.64063 -0.0899,0.1937 -0.19459,0.49406 -0.19815,0.75386 -0.004,0.29017 -0.10561,0.62199 0,0.90432 0.078,0.20853 0.23576,0.41164 0.43835,0.50393 0.1943,0.0885 0.42702,0 0.64053,0 h 1.201 1.201 c 0,0 -0.78939,0.97857 -1.28106,1.36132 -0.21684,0.1688 -0.57436,0.16772 -0.72061,0.40039 -0.24189,0.38483 -0.0801,0.90677 -0.0801,1.36133 0,0.45455 -0.0607,0.92914 0.0801,1.36132 0.13764,0.42239 0.47134,0.75338 0.72061,1.12109 0.25767,0.38011 0.55684,0.73195 0.80066,1.1211 0.17757,0.28341 0.28006,0.61306 0.4804,0.88085 0.13567,0.18136 0.29134,0.35579 0.4804,0.48048 0.11999,0.0791 0.40034,0.16016 0.40034,0.16016 l 0.24019,-1.28126 c 0,0 -0.0707,-0.43912 0,-0.64062 0.0566,-0.16129 0.15005,-0.38526 0.32027,-0.40039 0.28259,-0.0251 0.32515,0.38709 0.44238,0.64549 0.19851,0.43752 0.0283,1.35646 0.0283,1.35646 0,0 0.17012,0.48496 0.26448,0.79107 0.0567,0.18394 0.26393,0.86455 0.32027,1.07501 0.15139,0.5655 0.30985,0.78487 0.46582,1.17688 0.21256,0.53424 0.41478,1.07278 0.64054,1.60157 0.25328,0.59323 0.28608,0.7979 0.74405,1.2521 0.18665,0.18511 0.5456,0.59238 0.77721,0.82993 0.24296,0.24917 0.88074,0.56055 0.88074,0.56055 0,0 0.25041,-0.59531 0.40033,-0.88087 0.2894,-0.5512 0.5595,-0.96516 0.84758,-1.46 0.26001,-0.44663 0.56935,-0.86371 0.75376,-1.34273 0.21635,-0.56199 0.47357,-1.03487 0.68341,-1.56353 0.13047,-0.32872 0.18199,-0.69191 0.35745,-0.99897 0.31029,-0.543 0.68761,-1.08431 1.201,-1.4414 0.395,-0.27475 0.94499,-0.23894 1.36113,-0.48047 0.67101,-0.38946 1.38152,-0.84498 1.76147,-1.52148 0.23852,-0.42469 0.22426,-0.95458 0.2402,-1.44141 0.0264,-0.80434 -0.18982,-1.59915 -0.2402,-2.40235 -0.0652,-1.03931 -0.0122,-2.0839 -0.0801,-3.12304 -0.0665,-1.01776 -0.28907,-1.89622 -0.46181,-2.901413 -0.11623,-0.676339 -0.19327,-1.472865 -0.33886,-2.143505 -0.20767,-0.95665 -0.26103,-1.950817 -0.56047,-2.882815 -0.21555,-0.670919 -0.50402,-1.205061 -0.65427,-1.893564 -0.0455,-0.208632 -0.22646,-0.668936 -0.22646,-0.668936 0,0 1.26143,1.391862 1.83182,2.120059 0.49404,0.630725 0.90297,1.251611 1.20099,1.968792 0.25933,0.624047 0.15515,1.297008 0.34858,1.917013 0.22688,0.727205 0.9422,2.082019 0.9422,2.082019 0,0 0.59627,-0.986058 0.80067,-1.521471 0.23551,-0.616903 0.32387,-1.280365 0.4804,-1.921877 0.13659,-0.559786 0.25229,-1.124775 0.40034,-1.681636 0.12153,-0.45711 0.2419,-0.880381 0.68341,-1.049903 0.38032,-0.146023 0.33876,0.08339 0.53132,0.44244 0.36607,0.682563 -0.0976,1.510165 -0.0801,2.26565 0.0139,0.596895 -0.14859,1.192917 -0.24992,1.785168 -0.0918,0.536888 -0.17828,1.076806 -0.32429,1.601559 -0.10637,0.38229 -0.33262,0.7301 -0.40033,1.1211 -0.0592,0.34191 0.10669,0.72719 0.25477,1.04101 0.25085,0.53162 0.57778,0.83628 1.16298,0.78136 0.41506,-0.039 0.38909,-0.3744 0.40435,-0.79107 0.0344,-0.93889 -1.03042,-1.44842 -0.79581,-2.19043 0.13394,-0.423581 0.43931,-0.236627 0.6397,-0.0412 0.41945,0.40901 0.71199,0.55903 1.13634,1.28042 0.66932,1.13782 0.11591,2.43301 0.16901,3.64154 0.0479,1.09013 0.18747,2.20195 -0.0186,3.27349 -0.15163,0.78856 -0.34612,1.55815 -0.88072,2.15725 -0.98578,1.10469 -3.92327,2.08203 -3.92327,2.08203 0,0 -2.21914,1.20553 -3.27302,1.89842 -0.74935,0.49268 -1.77513,0.79234 -2.1618,1.60157 -0.27643,0.57851 -0.16519,1.28076 -0.1747,1.92187 -0.006,0.37461 -0.069,0.83653 0.1747,1.1211 0.20904,0.24414 0.72478,0.29824 0.9608,0.0801 0.76255,-0.70487 0.57404,-1.53527 1.00285,-2.29395 0.40095,-0.7094 0.92897,-1.49055 1.67737,-1.91216 0.34958,-0.19694 1.26098,-0.92698 1.62562,-0.75957 0.4851,0.22273 -0.0113,1.23561 -0.0866,1.8475 -0.0897,0.72795 -0.18512,1.46714 -0.43352,2.15724 -0.2708,0.75238 -0.7405,1.41782 -1.13467,2.11354 -0.28515,0.50328 -0.52285,1.04267 -0.88961,1.48998 -0.47926,0.58452 -1.62084,0.67507 -1.93616,1.40824 -0.25964,0.60371 0.0142,1.3435 0.25477,1.95504 0.25223,0.641 0.75971,1.12209 0.91792,1.76658 0.14379,0.58576 0.20505,1.2408 0.004,1.80946 -0.2331,0.65942 -0.80512,1.15823 -1.32227,1.62904 -0.42698,0.3887 -1.01563,0.5707 -1.4412,0.96093 -0.3779,0.34651 -0.86493,0.69748 -0.9608,1.20118 -0.0679,0.35665 0.0964,0.75519 0.32026,1.04101 0.28788,0.3676 0.76746,0.48132 1.201,0.57914 0.57277,0.12923 1.76147,-0.01 1.76147,-0.01 0,0 1.55202,0.0515 2.32193,-0.0283 0.37879,-0.0393 0.7536,-0.12036 1.12093,-0.22081 0.46412,-0.1269 0.89154,-0.37569 1.36114,-0.48046 0.52357,-0.11681 1.06957,-0.23085 1.60133,-0.16016 0.59453,0.0791 1.19086,0.29549 1.68139,0.64062 0.4025,0.2832 0.57693,0.81312 0.96081,1.1211 0.35391,0.28394 0.76083,0.53057 1.20099,0.64062 0.75087,0.18775 1.54892,0.0386 2.32194,0 1.33943,-0.0668 2.69103,-0.12387 4.00333,-0.40039 1.34615,-0.28364 2.58015,-0.9835 3.92326,-1.28124 0.86616,-0.19201 1.76584,-0.18217 2.6422,-0.32032 1.93371,-0.30484 4.03479,-0.9391 5.76479,-1.12109 1.73001,-0.18198 3.05303,-0.26046 4.56381,-0.0801 0.62991,0.0753 1.24768,0.25731 1.84153,0.48047 1.28489,0.48285 2.47666,1.18701 3.68306,1.8418 1.25117,0.6791 2.54628,1.30513 3.68306,2.16211 0.61807,0.46593 1.17397,1.01706 1.68141,1.60156 0.60209,0.69353 0.96231,1.58254 1.60133,2.24218 0.88774,0.91639 2.08224,1.48224 3.04253,2.32227 0.45456,0.39764 1.06645,0.71669 1.28107,1.28125 0.16151,0.42489 0.0925,0.56098 -0.0801,0.73847 -0.65736,0.67589 -2.85895,-0.042 -2.85895,-0.042 l -1.53501,-0.65922 c 0,0 -1.25428,-1.1146 -2.03968,-1.28125 -0.46544,-0.0987 -1.10776,-0.16209 -1.41289,0.20304 -0.47955,0.57384 0.21033,1.50575 0.0801,2.24219 -0.16059,0.90787 -0.60952,1.7477 -1.04087,2.5625 -0.36022,0.68044 -0.95794,1.22304 -1.28107,1.92187 -0.40776,0.8819 -0.66591,1.8405 -0.80066,2.80273 -0.13697,0.97809 -0.0336,1.97584 0,2.9629 0.0401,1.17652 -0.084,2.39175 0.24019,3.52343 0.24992,0.87246 0.75924,1.65988 1.28108,2.40235 0.43464,0.61842 1.26648,1.68164 1.26648,1.68164 0,0 -0.28966,1.43636 -0.38576,2.16211 -0.0809,0.61091 -0.23131,1.97933 -0.47152,2.37972 -0.2402,0.40039 -0.50871,1.52702 -0.57905,2.32143 -0.0958,1.08161 0.17911,2.16499 0.22077,3.25003 0.0417,1.08583 0.0418,2.1732 0.0292,3.25975 -0.01,0.82785 -0.0801,2.48243 -0.0801,2.48243 l -1.84154,0.16015 -1.28509,-0.21109 c 0,0 0.82785,-4.92762 0.32429,-7.31625 -0.16627,-0.78874 -0.82451,-1.40023 -1.0732,-2.16697 -0.37532,-1.15721 -0.26855,-2.43047 -0.6082,-3.59865 -0.30726,-1.05679 -0.64677,-2.14364 -1.28106,-3.04298 -0.72956,-1.03441 -2.00898,-1.57618 -2.80234,-2.5625 -0.73456,-0.91321 -1.26348,-1.982 -1.76146,-3.04296 -0.22964,-0.48926 -0.67369,-1.80461 -0.67369,-1.80461 0,0 -1.57224,1.06254 -2.08659,1.83208 -0.66838,0.99998 -0.91994,2.23787 -1.16298,3.41589 -0.2056,0.99648 -0.34431,1.98474 -0.52329,2.98634 -0.19026,1.06476 -0.37446,2.14287 -0.68257,3.17967 -0.38237,1.28673 0.008,1.89336 -0.43669,2.68296 -0.35266,0.62665 -1.45239,0.79605 -1.95158,1.42934 -0.40883,0.51866 -0.84949,1.32503 -1.2261,1.95637 -0.37663,0.63135 -0.97228,1.56896 -1.35142,2.18022 -0.57758,0.93116 -1.56571,1.66249 -1.77438,2.54792 -0.0676,0.28697 0.23656,0.61464 0.50469,1.10735 0.38276,0.70335 -0.0849,1.94935 -0.0849,1.94935 l -2.64221,0.48047 c 0,0 -0.83049,-2.31937 -0.80066,-3.52343 0.0172,-0.69278 0.26751,-1.37396 0.56046,-2.00196 0.51955,-1.11377 1.31094,-2.08578 2.08174,-3.04296 0.80529,-1.00002 1.76603,-1.70625 2.33081,-2.85937 0.38026,-0.77638 0.50305,-1.75084 0.51356,-2.61911 0.0103,-0.85453 -0.31278,-1.57632 -0.44237,-2.36918 -0.24783,-1.51627 -0.16843,-3.13705 -0.24423,-4.70601 -0.0274,-0.56665 -0.076,-1.70023 -0.076,-1.70023 l -12.17012,-0.16016 -0.16013,18.97851 -0.0801,4.48437 -3.84319,0.0801 c 0,0 0.57041,-3.13861 0.7206,-4.72461 0.20146,-2.1274 0.16965,-4.2705 0.2402,-6.40625 0.0308,-0.93412 0.10908,-1.86856 0.0801,-2.80273 -0.0183,-0.58938 0.0386,-1.20659 -0.16013,-1.76172 -0.27206,-0.75973 -0.98031,-1.29051 -1.36113,-2.00195 -0.43508,-0.81282 -0.55342,-1.67827 -0.81441,-2.5625 -0.16153,-0.54728 -0.54672,-1.68164 -0.54672,-1.68164 0,0 -0.33,0.63594 -0.48041,0.96094 -0.56634,1.22374 -1.09098,2.46712 -1.58759,3.72078 -0.63375,1.59984 -1.05985,3.10637 -2.05828,4.50783 -0.5394,0.75713 -1.40349,1.29087 -1.87872,2.10146 -0.4568,0.77916 -0.70235,1.67707 -0.88073,2.5625 -0.31701,1.5735 -0.2435,3.36047 -0.63166,4.91793 -0.34672,1.39116 -1.14902,2.48528 -1.45008,3.81059 -0.1424,0.62686 -0.16013,1.92187 -0.16013,1.92187 l -3.68306,0.56054 c 0,0 -0.33621,-1.23016 -0.24018,-1.8418 z"
           id="path2455"
           inkscape:connector-curvature="0"
           sodipodi:nodetypes="csaaassssssssssssssssaszsssssssscsssssassssssssssssssssssscssssscscsssssscsssssscsssssssscssssssssccssscsssssscssssssssaassssscssscsssssssssssssssssscssssssssssssssssssssacssssssssssszsssssssssccsssssasascscssscccssssascssssssssssccssssssscccccsssssscassssssccsc" />
        <path
           style="opacity:0.294;fill:#fbf206;fill-opacity:0.95767194;stroke:#000000;stroke-width:2.66499996;stroke-linejoin:miter;stroke-miterlimit:4;stroke-dasharray:none;stroke-opacity:0;paint-order:markers stroke fill;filter:url(#filter2495)"
           id="path2461"
           sodipodi:type="arc"
           sodipodi:cx="48.129047"
           sodipodi:cy="45.892014"
           sodipodi:rx="21.971949"
           sodipodi:ry="21.971949"
           sodipodi:start="0"
           sodipodi:end="6.2829061"
           sodipodi:open="true"
           d="M 70.100996,45.892014 A 21.971949,21.971949 0 0 1 48.130581,67.863962 21.971949,21.971949 0 0 1 26.157099,45.895081 21.971949,21.971949 0 0 1 48.124446,23.920065 21.971949,21.971949 0 0 1 70.100995,45.885879" />
      </g>
    </g>
  </g>
</svg>
