<?xml version="1.0" encoding="UTF-8" standalone="no"?>
<!-- Created with Inkscape (http://www.inkscape.org/) -->

<svg
   xmlns:dc="http://purl.org/dc/elements/1.1/"
   xmlns:cc="http://creativecommons.org/ns#"
   xmlns:rdf="http://www.w3.org/1999/02/22-rdf-syntax-ns#"
   xmlns:svg="http://www.w3.org/2000/svg"
   xmlns="http://www.w3.org/2000/svg"
   xmlns:sodipodi="http://sodipodi.sourceforge.net/DTD/sodipodi-0.dtd"
   xmlns:inkscape="http://www.inkscape.org/namespaces/inkscape"
   width="210mm"
   height="297mm"
   viewBox="0 0 210 297"
   version="1.1"
   id="svg1939"
   inkscape:version="0.92.4 (5da689c313, 2019-01-14)"
   sodipodi:docname="HAMP.svg">
  <defs
     id="defs1933">
    <inkscape:path-effect
       effect="bspline"
       id="path-effect2603"
       is_visible="true"
       weight="33.333333"
       steps="2"
       helper_size="0"
       apply_no_weight="true"
       apply_with_weight="true"
       only_selected="false" />
    <inkscape:path-effect
       effect="bspline"
       id="path-effect2599"
       is_visible="true"
       weight="33.333333"
       steps="2"
       helper_size="0"
       apply_no_weight="true"
       apply_with_weight="true"
       only_selected="false" />
    <inkscape:path-effect
       effect="bspline"
       id="path-effect2595"
       is_visible="true"
       weight="33.333333"
       steps="2"
       helper_size="0"
       apply_no_weight="true"
       apply_with_weight="true"
       only_selected="false" />
    <inkscape:path-effect
       effect="bspline"
       id="path-effect2591"
       is_visible="true"
       weight="33.333333"
       steps="2"
       helper_size="0"
       apply_no_weight="true"
       apply_with_weight="true"
       only_selected="false" />
  </defs>
  <sodipodi:namedview
     id="base"
     pagecolor="#ffffff"
     bordercolor="#666666"
     borderopacity="1.0"
     inkscape:pageopacity="0.0"
     inkscape:pageshadow="2"
     inkscape:zoom="1.4"
     inkscape:cx="250.92268"
     inkscape:cy="446.31296"
     inkscape:document-units="mm"
     inkscape:current-layer="layer1"
     showgrid="true"
     inkscape:window-width="1366"
     inkscape:window-height="745"
     inkscape:window-x="-8"
     inkscape:window-y="-8"
     inkscape:window-maximized="1">
    <inkscape:grid
       type="axonomgrid"
       id="grid2577"
       units="mm"
       empspacing="5"
       spacingy="2.5"
       gridanglex="30"
       gridanglez="30"
       color="#ed0000"
       opacity="0.1254902"
       empcolor="#3f67ff"
       empopacity="0.25098039" />
    <inkscape:grid
       type="axonomgrid"
       id="grid2579"
       units="mm"
       empspacing="5"
       enabled="false" />
  </sodipodi:namedview>
  <metadata
     id="metadata1936">
    <rdf:RDF>
      <cc:Work
         rdf:about="">
        <dc:format>image/svg+xml</dc:format>
        <dc:type
           rdf:resource="http://purl.org/dc/dcmitype/StillImage" />
        <dc:title></dc:title>
      </cc:Work>
    </rdf:RDF>
  </metadata>
  <g
     inkscape:label="Layer 1"
     inkscape:groupmode="layer"
     id="layer1">
    <text
       xml:space="preserve"
       style="font-style:normal;font-variant:normal;font-weight:900;font-stretch:normal;font-size:25.39999962px;line-height:1.25;font-family:Arial;-inkscape-font-specification:'Arial Heavy';letter-spacing:0px;word-spacing:0px;fill:#000000;fill-opacity:1;stroke:none;stroke-width:0.26458332"
       x="78.573311"
       y="261.08557"
       id="text2571"
       transform="skewY(-31.871851)"><tspan
         sodipodi:role="line"
         id="tspan2569"
         x="78.573311"
         y="261.08557"
         style="stroke-width:0.26458332">HA</tspan></text>
    <text
       xml:space="preserve"
       style="font-style:normal;font-variant:normal;font-weight:900;font-stretch:normal;font-size:24.59999275px;line-height:1.25;font-family:Arial;-inkscape-font-specification:'Arial Heavy';letter-spacing:0px;word-spacing:0px;fill:#000000;fill-opacity:1;stroke:none;stroke-width:0.26458332"
       x="-35.174294"
       y="279.19904"
       id="text2575"
       transform="matrix(1.2208662,-0.71147157,0.41218524,0.57888564,0,0)"><tspan
         sodipodi:role="line"
         id="tspan2573"
         x="-35.174294"
         y="279.19904"
         style="stroke-width:0.26458332">MP</tspan></text>
    <path
       style="fill:none;stroke:#000000;stroke-width:0.26458332px;stroke-linecap:butt;stroke-linejoin:miter;stroke-opacity:1"
       d="m 64.951906,172 c 0,0 21.650634,12.5 21.650634,12.5"
       id="path2589"
       inkscape:connector-curvature="0"
       inkscape:path-effect="#path-effect2591"
       inkscape:original-d="M 64.951906,172 86.60254,184.5"
       transform="translate(-10.825317,6.25)" />
    <path
       style="fill:none;stroke:#000000;stroke-width:0.26458332px;stroke-linecap:butt;stroke-linejoin:miter;stroke-opacity:1"
       d="m 64.951906,172 c 0,0 0,25 0,25"
       id="path2593"
       inkscape:connector-curvature="0"
       inkscape:path-effect="#path-effect2595"
       inkscape:original-d="m 64.951906,172 v 25"
       transform="translate(-10.825317,6.25)" />
    <path
       style="fill:none;stroke:#000000;stroke-width:0.26458332px;stroke-linecap:butt;stroke-linejoin:miter;stroke-opacity:1"
       d="m 86.60254,209.5 c 0,0 -21.650634,-12.5 -21.650634,-12.5"
       id="path2597"
       inkscape:connector-curvature="0"
       inkscape:path-effect="#path-effect2599"
       inkscape:original-d="M 86.60254,209.5 64.951906,197"
       transform="translate(-10.825317,6.25)" />
    <path
       style="fill:none;stroke:#000000;stroke-width:0.26458332px;stroke-linecap:butt;stroke-linejoin:miter;stroke-opacity:1"
       d="m 86.60254,184.5 c 0,0 0,25 0,25"
       id="path2601"
       inkscape:connector-curvature="0"
       inkscape:path-effect="#path-effect2603"
       inkscape:original-d="m 86.60254,184.5 v 25"
       transform="translate(-10.825317,6.25)" />
    <path
       style="fill:none;stroke:#000000;stroke-width:0.26458332px;stroke-linecap:butt;stroke-linejoin:miter;stroke-opacity:1"
       d="M 75.777223,215.75 121.24356,189.5"
       id="path2605"
       inkscape:connector-curvature="0" />
    <path
       style="fill:none;stroke:#000000;stroke-width:0.26458332px;stroke-linecap:butt;stroke-linejoin:miter;stroke-opacity:1"
       d="m 75.777223,190.75 43.301267,-25"
       id="path2607"
       inkscape:connector-curvature="0" />
    <path
       style="fill:none;stroke:#000000;stroke-width:0.26458332px;stroke-linecap:butt;stroke-linejoin:miter;stroke-opacity:1"
       d="M 54.126589,178.25 108.25317,147"
       id="path2609"
       inkscape:connector-curvature="0" />
    <path
       style="fill:none;stroke:#000000;stroke-width:0.26458332px;stroke-linecap:butt;stroke-linejoin:miter;stroke-opacity:1"
       d="m 108.25318,147 c 17.3205,-10 32.47595,6.25 10.82531,18.75"
       id="path2622"
       inkscape:connector-curvature="0"
       sodipodi:nodetypes="cc" />
    <path
       style="fill:none;stroke:#000000;stroke-width:0.26458332px;stroke-linecap:butt;stroke-linejoin:miter;stroke-opacity:1"
       d="m 129.90381,152 v 25"
       id="path2639"
       inkscape:connector-curvature="0" />
    <path
       style="fill:none;stroke:#000000;stroke-width:0.26458332px;stroke-linecap:butt;stroke-linejoin:miter;stroke-opacity:1"
       d="m 121.24355,189.5 c 6.4952,-3.75 8.66026,-5 8.66026,-12.5"
       id="path2695"
       inkscape:connector-curvature="0"
       sodipodi:nodetypes="cc" />
    <path
       style="opacity:1;fill:#ff0000;fill-opacity:1;stroke:#000000;stroke-width:7.55905581;stroke-linejoin:miter;stroke-miterlimit:17.5;stroke-dasharray:none;stroke-opacity:0;paint-order:markers stroke fill"
       d="m 246.53294,696.92908 c -31.30797,-18.06604 -39.61298,-23.15126 -38.88855,-23.81174 2.02406,-1.84541 207.31069,-119.82393 211.88405,-121.77006 9.97037,-4.24278 16.91507,-5.84826 26.89424,-6.21745 15.27194,-0.56501 26.12616,2.86564 34.29273,10.83877 17.02245,16.61923 8.69785,42.41871 -20.26579,62.80742 -4.04198,2.84531 -140.80248,82.32907 -170.29303,98.97251 l -3.81394,2.15246 z m 45.60402,-2.39168 c 3.92858,-2.27513 7.69126,-4.50601 8.36153,-4.95752 1.08326,-0.7297 0.15034,-2.31686 -8.39613,-14.28424 -5.28814,-7.40483 -9.49215,-13.58597 -9.34224,-13.73588 0.14991,-0.14991 7.92967,3.92059 17.28835,9.04555 l 17.01579,9.31811 8.40505,-4.82263 c 4.62278,-2.65245 8.89237,-5.17533 9.48797,-5.6064 0.95898,-0.69407 0.80822,-2.86037 -1.31734,-18.92857 -1.32015,-9.97965 -2.31565,-18.24183 -2.21222,-18.3604 0.10343,-0.11858 4.60274,5.98856 9.99847,13.57142 5.39572,7.58286 10.1737,13.68419 10.61773,13.5585 0.44403,-0.12568 5.22648,-2.80689 10.62767,-5.95822 6.77428,-3.95248 9.6545,-6.00463 9.28571,-6.61603 -0.29404,-0.48747 -6.45627,-9.21697 -13.69384,-19.39891 -7.23757,-10.18193 -13.22167,-18.60384 -13.29799,-18.71535 -0.28592,-0.41775 -32.14198,18.44205 -32.77796,19.4056 -0.56862,0.86149 1.53338,21.06428 2.96215,28.46994 0.40381,2.09306 0.6805,2.22394 -24.84382,-11.75164 l -3.97398,-2.17591 -16.5436,9.55595 c -9.09898,5.25577 -16.55176,9.81323 -16.56173,10.12767 -0.01,0.31445 6.15523,9.21938 13.70045,19.78874 l 13.7186,19.21701 2.17426,-1.3051 c 1.19585,-0.7178 5.38855,-3.16656 9.31712,-5.44169 z m 108.60932,-63.29053 c 6.85416,-3.98506 12.46211,-7.47078 12.46211,-7.74604 0,-0.27526 -2.10684,-3.44561 -4.68188,-7.04522 -2.57502,-3.59961 -4.51249,-6.81881 -4.30547,-7.15377 0.20702,-0.33496 3.3585,-2.31914 7.0033,-4.40929 18.82359,-10.79459 27.2502,-18.52195 28.68137,-26.30138 0.59708,-3.24557 -1.55851,-7.96466 -4.64299,-10.16455 -2.12269,-1.51394 -3.1813,-1.71845 -8.84004,-1.70777 -5.70795,0.0108 -7.10916,0.29343 -12.5,2.52164 -4.93757,2.04085 -50.90479,28.00822 -53.12699,30.01199 -0.54729,0.49349 26.25941,39.23996 27.14812,39.23996 0.1872,0 5.9483,-3.26051 12.80247,-7.24557 z"
       id="path2701"
       inkscape:connector-curvature="0"
       transform="scale(0.26458333)" />
    <path
       style="opacity:1;fill:#ff0000;fill-opacity:1;stroke:#000000;stroke-width:7.55905581;stroke-linejoin:miter;stroke-miterlimit:17.5;stroke-dasharray:none;stroke-opacity:0;paint-order:markers stroke fill"
       d="M 244.81554,790.50255 205.35125,767.63209 V 721.6337 c 0,-25.29913 0.24107,-45.98773 0.53571,-45.97467 0.29465,0.0131 18.21429,10.25049 39.82143,22.74987 l 39.28572,22.72614 0.18378,46.1787 c 0.10108,25.39828 -0.0596,46.15183 -0.35715,46.11898 -0.2975,-0.0329 -18.29985,-10.35142 -40.0052,-22.93017 z"
       id="path2703"
       inkscape:connector-curvature="0"
       transform="scale(0.26458333)" />
    <path
       style="opacity:1;fill:#808000;fill-opacity:1;stroke:#000000;stroke-width:7.55905581;stroke-linejoin:miter;stroke-miterlimit:17.5;stroke-dasharray:none;stroke-opacity:0;paint-order:markers stroke fill"
       d="m 253.92268,700.79042 c -36.40718,-21.07087 -43.78312,-25.47459 -44.87808,-26.79394 -0.9324,-1.12347 -3.49557,0.42008 63.09236,-37.99445 73.63968,-42.48267 138.52375,-79.53163 145.80952,-83.25756 9.57246,-4.89535 16.38402,-6.55232 28.58246,-6.95289 11.72124,-0.3849 18.16651,0.70209 25.30023,4.26685 5.70629,2.85146 11.99391,9.0696 14.60914,14.44769 2.87109,5.90426 3.30876,14.45835 1.08108,21.12917 -2.2915,6.86192 -6.67843,13.7888 -12.77213,20.16701 -9.68802,10.14034 -10.00167,10.34714 -59.03887,38.92877 -72.50628,42.26072 -128.46898,74.47907 -129.34541,74.46559 -0.36002,-0.006 -14.95816,-8.28834 -32.4403,-18.40624 z m 37.22798,-5.30655 c 5.45318,-3.22613 9.91488,-6.27175 9.91488,-6.76802 0,-0.87249 -4.53815,-7.80196 -13.12748,-20.04484 -2.27387,-3.24107 -3.9045,-5.89286 -3.62362,-5.89286 0.28088,0 7.64507,3.85714 16.36487,8.57143 8.71981,4.71429 16.13313,8.57143 16.47405,8.57143 1.39379,0 18.21499,-10.3572 18.55353,-11.42384 0.20138,-0.63448 -0.58209,-8.68072 -1.74103,-17.8805 -1.15895,-9.1998 -2.03368,-16.8004 -1.94385,-16.89023 0.0898,-0.0898 3.34644,4.2404 7.2369,9.62275 9.10167,12.59194 11.7618,15.85753 12.91745,15.85753 1.4279,0 15.09238,-7.9244 17.85939,-10.35714 l 2.43729,-2.14286 -13.21677,-18.54873 c -7.26922,-10.2018 -13.51493,-18.84689 -13.87934,-19.2113 -0.66981,-0.66981 -12.9831,6.03013 -26.45425,14.39435 l -6.78572,4.21324 0.136,5.64765 c 0.0748,3.10621 0.66685,9.60917 1.31566,14.45104 0.64882,4.84186 1.00234,8.9807 0.78562,9.19743 -0.33695,0.33695 -16.05092,-7.84471 -25.1186,-13.07831 l -2.88133,-1.66301 -12.83296,7.50862 c -20.19513,11.81627 -20.4362,11.97422 -20.12011,13.18295 0.46683,1.78517 26.59302,38.54893 27.39482,38.54893 0.23085,0 4.88143,-2.63956 10.3346,-5.86571 z m 102.19803,-59.59215 c 12.44987,-7.19117 19.8597,-11.8459 19.8597,-12.47553 0,-0.38465 -1.92857,-3.53899 -4.28571,-7.00965 -2.35714,-3.47065 -4.28572,-6.48505 -4.28572,-6.69868 0,-0.21362 3.88886,-2.74413 8.6419,-5.62334 12.23246,-7.40997 20.31098,-13.74538 23.74838,-18.62418 2.4963,-3.5431 2.89633,-4.63315 2.92902,-7.98144 0.0426,-4.36247 -1.32022,-6.80537 -5.31203,-9.52218 -3.07954,-2.09592 -10.79803,-2.21066 -17.08487,-0.25397 -5.67903,1.76751 -53.16905,27.94197 -56.32407,31.04342 -0.72315,0.71086 0.62637,3.1475 6.81589,12.30637 12.16546,18.00171 19.01433,27.42376 19.94037,27.43215 0.47003,0.004 2.88074,-1.16257 5.35714,-2.59297 z"
       id="path2705"
       inkscape:connector-curvature="0"
       transform="scale(0.26458333)" />
    <path
       style="opacity:1;fill:#808000;fill-opacity:1;stroke:#000000;stroke-width:7.55905581;stroke-linejoin:miter;stroke-miterlimit:17.5;stroke-dasharray:none;stroke-opacity:0;paint-order:markers stroke fill"
       d="m 287.66747,767.29754 0.18378,-46.1949 82.97785,-47.91225 c 45.63782,-26.35173 85.16993,-49.35867 87.84913,-51.12652 14.97389,-9.88045 26.08123,-22.22423 30.24901,-33.61626 l 1.42087,-3.88374 -0.23206,48.21428 c -0.2051,42.61382 -0.37306,48.7464 -1.44593,52.79527 -2.55327,9.63565 -7.81626,15.85812 -19.55076,23.11501 -6.84055,4.23036 -180.86219,104.80401 -181.34139,104.80401 -0.16186,0 -0.21158,-20.78771 -0.1105,-46.1949 z m 27.32664,24.13423 10,-6.26503 0.19354,-14.01327 0.19354,-14.01325 10.92572,-6.8239 c 6.00915,-3.75313 11.14527,-6.82388 11.4136,-6.82388 0.26834,0 0.48788,5.94643 0.48788,13.21428 0,7.53577 0.28147,13.21429 0.65499,13.21429 0.36024,0 5.34239,-2.93059 11.07143,-6.51242 l 10.41644,-6.51242 v -34.61853 c 0,-19.80342 -0.27074,-34.51665 -0.63264,-34.38044 -0.34795,0.13095 -5.31959,3.13095 -11.04809,6.66667 l -10.41546,6.42857 -0.0287,12.14285 -0.0287,12.14286 -11.24465,6.91883 -11.24466,6.91884 -0.35714,-11.74369 -0.35714,-11.74368 -10.53572,6.49222 -10.53571,6.49222 v 34.58263 c 0,19.02045 0.24107,34.56433 0.53571,34.54197 0.29465,-0.0224 5.03572,-2.85994 10.53572,-6.30572 z m 73.57143,-45.79585 c 4.71428,-2.89343 9.08199,-5.6872 9.70601,-6.20839 0.62403,-0.52119 1.73058,-3.55706 2.459,-6.7464 0.72843,-3.18933 1.82501,-6.35836 2.43684,-7.04227 1.22231,-1.36632 21.8045,-14.28928 22.75829,-14.28928 0.32628,0 1.14707,1.75691 1.82396,3.90424 0.67688,2.14732 1.47268,4.05378 1.76844,4.23657 0.29576,0.18279 5.56377,-2.80225 11.70668,-6.63341 l 11.16894,-6.96576 -12.78571,-26.02082 c -7.03215,-14.31145 -12.89592,-26.32275 -13.0306,-26.69177 -0.13468,-0.36902 -5.57307,2.66334 -12.08532,6.73859 l -11.84045,7.40953 -12.70401,41.83284 c -6.9872,23.00807 -12.87325,42.31412 -13.0801,42.90234 -0.32602,0.92711 -0.14295,0.92074 1.37525,-0.0479 0.96324,-0.61455 5.60849,-3.4847 10.32278,-6.37813 z"
       id="path2707"
       inkscape:connector-curvature="0"
       transform="scale(0.26458333)" />
    <path
       style="opacity:1;fill:#d45500;fill-opacity:1;stroke:#000000;stroke-width:7.55905581;stroke-linejoin:miter;stroke-miterlimit:17.5;stroke-dasharray:none;stroke-opacity:0;paint-order:markers stroke fill"
       d="m 407.75732,705.09958 c 0.19772,-0.6875 1.67428,-6.39286 3.28125,-12.67857 1.60696,-6.28572 3.01534,-11.73474 3.12972,-12.10894 0.20466,-0.66954 5.81511,13.25173 6.59844,16.37278 0.34859,1.38888 -0.45349,2.13107 -6.08675,5.63221 -3.56853,2.21788 -6.66686,4.03252 -6.88519,4.03252 -0.21832,0 -0.23518,-0.5625 -0.0375,-1.25 z"
       id="path2709"
       inkscape:connector-curvature="0"
       transform="scale(0.26458333)" />
    <path
       style="opacity:1;fill:#d45500;fill-opacity:1;stroke:#000000;stroke-width:7.55905581;stroke-linejoin:miter;stroke-miterlimit:17.5;stroke-dasharray:none;stroke-opacity:0;paint-order:markers stroke fill"
       d="m 288.3817,766.98567 0.18384,-45.90335 24.64285,-14.23181 c 137.18092,-79.22508 145.59475,-84.1735 153.14415,-90.0685 10.1309,-7.91079 18.77046,-18.25805 22.11779,-26.48962 l 1.52378,-3.74719 -0.20187,43.65219 c -0.11103,24.0087 -0.47395,46.48497 -0.8065,49.94725 -1.25074,13.02188 -7.20968,20.59137 -24.0862,30.59608 -14.87713,8.81942 -152.2505,88.26657 -172.58927,99.81355 l -4.11241,2.33475 z m 24.52937,26.04202 c 4.28853,-2.61276 8.84197,-5.37665 10.11875,-6.14199 l 2.32143,-1.39151 v -14.0418 -14.04178 l 3.03571,-1.85362 c 1.66965,-1.01949 6.57143,-4.00849 10.89286,-6.64223 l 7.85714,-4.78862 0.46483,5.93315 c 0.25565,3.26323 0.49672,9.06708 0.53571,12.89743 0.0487,4.7833 0.33147,6.96429 0.90296,6.96429 0.45763,0 5.43134,-2.8125 11.05268,-6.25 l 10.22062,-6.25 0.0187,-34.82143 c 0.0103,-19.15179 -0.23634,-34.82143 -0.54813,-34.82143 -0.31178,0 -5.21356,2.83469 -10.89285,6.29932 l -10.32595,6.29932 -0.35715,12.34374 -0.35714,12.34374 -10.71429,6.61325 -10.71428,6.61325 -0.46482,-5.79203 c -0.25565,-3.18561 -0.49673,-8.28309 -0.53572,-11.32773 -0.039,-3.04464 -0.27362,-5.53572 -0.52139,-5.53572 -0.24778,0 -5.06716,2.8125 -10.70975,6.25 l -10.25924,6.25 -0.005,34.82143 c -0.002,19.15179 0.26345,34.82143 0.59099,34.82143 0.32755,0 4.10434,-2.13771 8.39286,-4.75046 z m 75.40472,-46.85668 10.66831,-6.60714 1.45581,-5 c 2.54637,-8.74553 2.39471,-8.54688 10.52548,-13.78677 10.77477,-6.94383 14.24489,-8.88467 15.02417,-8.40305 0.37457,0.2315 1.21358,2.02427 1.86448,3.98393 0.6509,1.95966 1.41492,3.56303 1.69785,3.56303 0.58374,0 21.53287,-12.64203 22.49973,-13.57777 0.54736,-0.52973 -23.68005,-51.35732 -25.33346,-53.14802 -0.5548,-0.60086 -11.90645,5.84268 -20.93747,11.88475 l -3.49914,2.34104 -12.72934,41.78571 c -7.00114,22.98215 -12.73902,42.1875 -12.75087,42.67857 -0.0118,0.49108 0.1737,0.89286 0.4123,0.89286 0.23861,0 5.23457,-2.97321 11.10215,-6.60714 z"
       id="path2711"
       inkscape:connector-curvature="0"
       transform="scale(0.26458333)" />
    <path
       style="opacity:1;fill:#d45500;fill-opacity:1;stroke:#000000;stroke-width:7.55905581;stroke-linejoin:miter;stroke-miterlimit:17.5;stroke-dasharray:none;stroke-opacity:0;paint-order:markers stroke fill"
       d="m 279.99411,715.48219 c -74.52803,-43.01702 -71.52618,-41.16326 -69.61735,-42.99153 1.52808,-1.46359 73.1806,-42.95338 152.11735,-88.08228 59.28623,-33.89452 61.42882,-35.00411 71.55275,-37.05548 7.88523,-1.59776 27.16754,-1.11944 32.73296,0.81197 8.70933,3.02246 17.94669,11.68629 20.47088,19.19988 1.77907,5.29562 1.55781,13.9174 -0.49569,19.31556 -1.65357,4.34688 -4.75214,10.01145 -7.23757,13.23123 -3.38646,4.38702 -13.43225,13.88117 -18.04493,17.05402 -13.79469,9.48876 -172.83758,101.58311 -175.22512,101.46474 -0.6893,-0.0342 -3.50328,-1.36083 -6.25328,-2.94811 z m 8.88233,-18.42576 c 8.52305,-4.92414 12.1891,-7.56046 12.1891,-8.76542 0,-0.46366 -3.55861,-6.10298 -7.90803,-12.53182 -4.34941,-6.42884 -7.80477,-11.77855 -7.67857,-11.88822 0.1262,-0.10968 7.14017,3.45481 15.5866,7.9211 8.44642,4.4663 15.79297,8.12242 16.32565,8.12474 0.91965,0.004 14.64517,-8.08084 17.5383,-10.33068 1.34086,-1.04274 1.33718,-1.29361 -0.21764,-14.82719 -0.86986,-7.57157 -1.76316,-15.21293 -1.9851,-16.98079 -0.40029,-3.18855 -0.33526,-3.12277 8.12109,8.21429 4.68852,6.28571 9.09203,11.8911 9.78555,12.45641 0.98377,0.80189 1.70846,0.85893 3.29666,0.25945 3.33169,-1.25758 15.30834,-8.62809 17.07381,-10.50736 l 1.63643,-1.74189 -13.29418,-18.58821 c -7.3118,-10.22352 -13.58795,-18.76978 -13.94702,-18.99169 -0.87586,-0.54131 -9.42783,3.94401 -22.7852,11.95035 l -10.99694,6.59151 0.44829,6.42857 c 0.24655,3.53571 0.79537,9.52896 1.21958,13.31833 1.13948,10.17844 1.46878,9.91091 -6.86214,5.57516 -3.92857,-2.04458 -10.02479,-5.3261 -13.54714,-7.29227 l -6.40428,-3.57484 -3.59572,2.01241 c -12.9203,7.23112 -29.66715,17.65577 -29.66715,18.46735 0,1.77731 26.42387,38.99386 27.68577,38.99386 0.30326,0 3.89529,-1.93191 7.98228,-4.29315 z M 395.68366,634.799 c 10.28564,-5.8868 17.52473,-10.66211 17.52473,-11.56027 0,-0.45674 -1.76785,-3.47098 -3.92857,-6.69831 -2.16071,-3.22733 -3.92857,-6.16209 -3.92857,-6.52169 0,-0.35961 3.75015,-2.9948 8.33367,-5.856 20.62792,-12.87669 27.87315,-20.79916 26.36637,-28.83095 -0.57668,-3.07397 -3.84824,-7.02749 -6.84115,-8.26719 -1.39491,-0.57779 -4.39939,-0.78195 -8.57178,-0.58246 -6.32248,0.30228 -6.58187,0.38793 -16.39962,5.41549 -11.58965,5.93493 -33.71546,18.19776 -41.45892,22.97786 -3.33832,2.06077 -5.43058,3.83647 -5.55201,4.71198 -0.34437,2.48289 24.87795,38.8772 26.95585,38.89567 0.57568,0.005 3.95068,-1.65274 7.5,-3.68413 z"
       id="path2713"
       inkscape:connector-curvature="0"
       transform="scale(0.26458333)" />
    <path
       style="opacity:1;fill:#ff9955;fill-opacity:1;stroke:#000000;stroke-width:7.55905581;stroke-linejoin:miter;stroke-miterlimit:17.5;stroke-dasharray:none;stroke-opacity:0;paint-order:markers stroke fill"
       d="m 394.4463,596.74226 -2.69067,-3.87611 5.90495,-3.2131 c 7.2847,-3.96386 9.28022,-4.73204 12.29257,-4.73204 5.31735,0 4.82493,4.63686 -0.94021,8.85351 -3.70714,2.71142 -10.60059,6.86525 -11.37169,6.85231 -0.27736,-0.005 -1.71509,-1.75271 -3.19495,-3.88457 z"
       id="path2715"
       inkscape:connector-curvature="0"
       transform="scale(0.26458333)" />
    <path
       style="opacity:1;fill:#ff9955;fill-opacity:1;stroke:#000000;stroke-width:7.55905581;stroke-linejoin:miter;stroke-miterlimit:17.5;stroke-dasharray:none;stroke-opacity:0;paint-order:markers stroke fill"
       d=""
       id="path2717"
       inkscape:connector-curvature="0"
       transform="scale(0.26458333)" />
    <path
       style="opacity:1;fill:#ffcc00;fill-opacity:1;stroke:#000000;stroke-width:7.55905581;stroke-linejoin:miter;stroke-miterlimit:17.5;stroke-dasharray:none;stroke-opacity:0;paint-order:markers stroke fill"
       d="m 284.2698,717.46017 c -2.0699,-0.87549 -49.61945,-28.24918 -63.33802,-36.46291 -3.74341,-2.2413 -7.73579,-4.84557 -8.87194,-5.78726 l -2.06573,-1.71218 1.6558,-1.40659 c 3.93632,-3.34387 181.69309,-105.61104 201.9712,-116.19823 5.53056,-2.88751 11.95913,-5.90812 14.28571,-6.71248 6.53799,-2.26034 17.99872,-3.13468 28.73158,-2.19192 11.4714,1.00763 16.02727,2.99903 23.19055,10.13673 5.79322,5.77254 7.77301,9.81156 8.22408,16.77812 0.41788,6.45407 -0.66808,11.44062 -3.86855,17.76373 -3.58934,7.0914 -7.37613,11.7674 -15.13386,18.68758 -7.32261,6.53205 -12.81975,10.0361 -49.7708,31.72541 -12.96428,7.60971 -23.67857,14.0941 -23.80952,14.40976 -0.13096,0.31566 -0.58485,0.57394 -1.00865,0.57394 -0.97823,0 -12.24372,6.54167 -12.56278,7.29498 -0.13096,0.30919 -0.53902,0.56216 -0.90682,0.56216 -0.36779,0 -14.35441,7.88349 -31.08138,17.51888 -25.27436,14.55901 -56.02525,31.98049 -62.06944,35.16455 -1.04465,0.55033 -2.02264,0.51082 -3.57143,-0.14427 z m 0.3983,-18.22384 c 2.14359,-1.16229 4.78136,-2.47944 5.86172,-2.92701 1.08036,-0.44758 1.96429,-1.10376 1.96429,-1.45819 0,-0.35442 0.34387,-0.64441 0.76415,-0.64441 1.15186,0 7.13482,-4.27788 7.57036,-5.41288 0.20937,-0.54561 -2.9108,-5.98822 -6.93371,-12.09468 -4.02291,-6.10647 -7.15369,-11.26337 -6.95728,-11.45977 0.19641,-0.19641 7.10288,3.0709 15.34773,7.26069 l 14.99061,7.6178 7.9057,-4.514 c 12.31329,-7.03066 11.31151,-5.59889 10.29822,-14.71841 -2.10473,-18.94259 -2.52358,-23.8216 -2.04498,-23.8216 0.23296,0 2.42105,2.65178 4.86241,5.89285 2.44137,3.24107 4.94689,6.41223 5.56782,7.04702 0.62093,0.63479 1.61111,1.87674 2.2004,2.75988 0.58928,0.88315 2.06185,2.73696 3.27236,4.11958 2.12801,2.43055 2.2866,2.48557 4.78629,1.6606 1.42195,-0.46928 3.74045,-1.63711 5.15222,-2.59516 1.41177,-0.95805 2.71693,-1.74192 2.90035,-1.74192 0.61442,0 8.71477,-5.71538 9.58293,-6.76145 0.47157,-0.56821 0.6061,-1.44898 0.29894,-1.95726 -0.57352,-0.94905 -22.06687,-30.86845 -23.18988,-32.28102 -0.34368,-0.43229 -1.35607,-1.67614 -2.24976,-2.76412 l -1.62488,-1.97813 -4.63056,2.20501 c -2.5468,1.21275 -4.7968,2.46857 -5,2.79071 -0.20319,0.32214 -1.49444,1.09751 -2.86944,1.72305 -1.375,0.62554 -2.98215,1.44418 -3.57143,1.81919 -0.58929,0.37501 -4.6875,2.81269 -9.10714,5.41708 l -8.03572,4.73525 0.008,3.70442 c 0.004,2.03743 0.48086,8.16363 1.05924,13.61378 0.57837,5.45015 0.88498,10.17894 0.68135,10.50842 -0.54121,0.87569 -2.69614,-0.0899 -15.27833,-6.84611 -10.28901,-5.52485 -11.52173,-6.01661 -13.34462,-5.32355 -2.72426,1.03576 -19.13688,10.75318 -19.43481,11.50678 -0.13095,0.33122 -0.48819,0.60224 -0.79388,0.60224 -0.71193,0 -11.46802,7.07822 -11.46802,7.54672 0,1.13436 17.25657,26.22831 19.77372,28.7543 0.51731,0.51913 0.94057,1.18174 0.94057,1.47246 0,0.29071 0.57222,1.15168 1.27161,1.91326 0.69939,0.76158 2.18397,2.59004 3.29907,4.06326 1.11509,1.47321 2.08366,2.67857 2.15238,2.67857 0.0687,0 1.87877,-0.95096 4.02236,-2.11325 z m 109.48247,-63.62936 c 6.93997,-3.47355 19.05786,-11.37788 19.05773,-12.43107 -6e-5,-0.41519 -1.5416,-3.16561 -3.42565,-6.11203 -1.88406,-2.94643 -3.66013,-5.7416 -3.94683,-6.21148 -0.34461,-0.56481 3.46406,-3.53614 11.23835,-8.76761 6.46779,-4.3523 13.6799,-9.80396 16.02692,-12.11482 4.34575,-4.2788 7.2596,-9.43888 7.23841,-12.81832 -0.0171,-2.71765 -2.84099,-7.28722 -5.68986,-9.20708 -2.14958,-1.4486 -3.24675,-1.64615 -8.56056,-1.54135 -3.74734,0.0739 -7.35979,0.59458 -9.37871,1.35178 -4.09123,1.53441 -34.96232,17.8682 -37.07341,19.61542 -0.58928,0.48771 -2.11607,1.30011 -3.39285,1.80533 -1.27679,0.50522 -2.32643,1.12066 -2.33254,1.36764 -0.006,0.24698 -1.59024,1.22404 -3.52029,2.17125 -1.93005,0.94721 -4.86884,2.89322 -6.53064,4.32446 l -3.02145,2.60226 3.07092,5.3184 c 5.36157,9.28546 22.80308,33.53269 24.12073,33.53269 0.19512,0 2.949,-1.29846 6.11973,-2.88547 z"
       id="path2719"
       inkscape:connector-curvature="0"
       transform="scale(0.26458333)" />
    <path
       style="opacity:1;fill:#ffcc00;fill-opacity:1;stroke:#000000;stroke-width:7.55905581;stroke-linejoin:miter;stroke-miterlimit:17.5;stroke-dasharray:none;stroke-opacity:0;paint-order:markers stroke fill"
       d="m 255.35125,796.14875 c -15.91071,-9.17171 -33.65757,-19.38751 -39.43745,-22.70178 l -10.50888,-6.02596 -0.0258,-18.21429 c -0.0142,-10.01785 0.18665,-30.50972 0.44633,-45.53749 l 0.47215,-27.3232 4.70541,2.57864 c 9.66762,5.29803 71.88323,41.24047 72.74646,42.0262 0.70719,0.64369 0.85909,10.49955 0.71429,46.34563 l -0.18392,45.52808 z"
       id="path2721"
       inkscape:connector-curvature="0"
       transform="scale(0.26458333)" />
    <path
       style="opacity:1;fill:#ffcc00;fill-opacity:1;stroke:#000000;stroke-width:7.55905581;stroke-linejoin:miter;stroke-miterlimit:17.5;stroke-dasharray:none;stroke-opacity:0;paint-order:markers stroke fill"
       d=""
       id="path2723"
       inkscape:connector-curvature="0"
       transform="scale(0.26458333)" />
    <path
       style="opacity:1;fill:#ffcc00;fill-opacity:1;stroke:#000000;stroke-width:7.55905581;stroke-linejoin:miter;stroke-miterlimit:17.5;stroke-dasharray:none;stroke-opacity:0;paint-order:markers stroke fill"
       d="m 394.64035,596.60463 c -2.24153,-3.12127 -2.30604,-3.37165 -1.09661,-4.25601 2.65431,-1.94088 12.25485,-6.54164 14.54455,-6.97003 4.6432,-0.8687 6.50514,1.87469 3.69609,5.44582 -1.62182,2.06181 -12.2727,9.0966 -13.77252,9.0966 -0.54443,0 -2.06161,-1.49237 -3.37151,-3.31638 z"
       id="path2725"
       inkscape:connector-curvature="0"
       transform="scale(0.26458333)" />
  </g>
</svg>
