<?xml version="1.0" encoding="UTF-8" standalone="no"?>
<!-- Created with Inkscape (http://www.inkscape.org/) -->

<svg
   xmlns:dc="http://purl.org/dc/elements/1.1/"
   xmlns:cc="http://creativecommons.org/ns#"
   xmlns:rdf="http://www.w3.org/1999/02/22-rdf-syntax-ns#"
   xmlns:svg="http://www.w3.org/2000/svg"
   xmlns="http://www.w3.org/2000/svg"
   xmlns:sodipodi="http://sodipodi.sourceforge.net/DTD/sodipodi-0.dtd"
   xmlns:inkscape="http://www.inkscape.org/namespaces/inkscape"
   width="210mm"
   height="297mm"
   viewBox="0 0 210 297"
   version="1.1"
   id="svg8"
   inkscape:version="0.92.4 (5da689c313, 2019-01-14)"
   sodipodi:docname="space.svg">
  <defs
     id="defs2" />
  <sodipodi:namedview
     id="base"
     pagecolor="#ffffff"
     bordercolor="#666666"
     borderopacity="1.0"
     inkscape:pageopacity="0.0"
     inkscape:pageshadow="2"
     inkscape:zoom="1.4142136"
     inkscape:cx="296.89039"
     inkscape:cy="622.45359"
     inkscape:document-units="mm"
     inkscape:current-layer="layer1"
     showgrid="false"
     inkscape:window-width="1366"
     inkscape:window-height="745"
     inkscape:window-x="-8"
     inkscape:window-y="-8"
     inkscape:window-maximized="1" />
  <metadata
     id="metadata5">
    <rdf:RDF>
      <cc:Work
         rdf:about="">
        <dc:format>image/svg+xml</dc:format>
        <dc:type
           rdf:resource="http://purl.org/dc/dcmitype/StillImage" />
        <dc:title></dc:title>
      </cc:Work>
    </rdf:RDF>
  </metadata>
  <g
     inkscape:label="Layer 1"
     inkscape:groupmode="layer"
     id="layer1">
    <text
       xml:space="preserve"
       style="font-style:normal;font-variant:normal;font-weight:900;font-stretch:normal;font-size:25.39999962px;line-height:1.25;font-family:Arial;-inkscape-font-specification:'Arial Heavy';letter-spacing:0px;word-spacing:0px;fill:#000000;fill-opacity:1;stroke:none;stroke-width:0.26458332"
       x="40.065475"
       y="129.55655"
       id="text817"><tspan
         sodipodi:role="line"
         id="tspan815"
         x="40.065475"
         y="129.55655"
         style="font-style:normal;font-variant:normal;font-weight:900;font-stretch:normal;font-size:25.39999962px;font-family:Arial;-inkscape-font-specification:'Arial Heavy';stroke-width:0.26458332">S</tspan></text>
    <text
       xml:space="preserve"
       style="font-style:normal;font-variant:normal;font-weight:900;font-stretch:normal;font-size:25.00795555px;line-height:1.25;font-family:Arial;-inkscape-font-specification:'Arial Heavy';letter-spacing:0px;word-spacing:0px;fill:#000000;fill-opacity:1;stroke:none;stroke-width:0.26458332"
       x="90.918121"
       y="129.16379"
       id="text837"><tspan
         sodipodi:role="line"
         id="tspan835"
         x="90.918121"
         y="129.16379"
         style="stroke-width:0.26458332">E</tspan></text>
    <g
       id="g1898"
       style="fill:#000000;stroke-width:0.90371072"
       transform="matrix(1.1065488,0,0,1.1065488,22.195145,39.752441)">
      <path
         sodipodi:nodetypes="cccsscscscccccccc"
         inkscape:connector-curvature="0"
         id="text833"
         d="m 63.32438,68.885399 -4.960937,1.10381 c -0.173633,-0.553971 -0.355534,-0.959114 -0.545703,-1.21543 -0.314193,-0.429947 -0.698667,-0.760677 -1.153419,-0.992187 -0.454753,-0.23151 -0.963248,-0.347266 -1.525487,-0.347266 -1.273308,0 -2.248959,0.512631 -2.926953,1.537891 -0.512631,0.760677 -0.768946,1.955435 -0.768946,3.584276 0,2.017448 0.305925,3.402377 0.917774,4.154786 0.611849,0.744141 1.471744,1.116211 2.579687,1.116211 1.07487,0 1.885156,-0.301791 2.430859,-0.905372 0.553972,-0.603581 0.95498,-1.480013 1.203026,-2.629297 l 4.923732,1.488281 c -0.330729,1.380794 -0.851627,2.534214 -1.562695,3.460255 -0.515898,0.671865 -1.124453,1.222706 -1.823146,1.655197 h 4.499986 v -16.16904 c -5.916096,-0.488138 -2.397135,0.910916 -1.287778,4.157885 z"
         style="font-style:normal;font-variant:normal;font-weight:900;font-stretch:normal;font-size:25.39999962px;line-height:1.25;font-family:Arial;-inkscape-font-specification:'Arial Heavy';letter-spacing:0px;word-spacing:0px;fill:#000000;fill-opacity:1;stroke:none;stroke-width:0.23910677" />
      <path
         sodipodi:nodetypes="ccc"
         inkscape:connector-curvature="0"
         id="path1894"
         d="m 61.938042,66.109195 -1.028988,-1.344699 1.648719,-0.01169"
         style="fill:#000000;stroke:#000000;stroke-width:0.23910677px;stroke-linecap:butt;stroke-linejoin:miter;stroke-opacity:1" />
    </g>
    <path
       style="fill:none;stroke:#000000;stroke-width:0.26458332px;stroke-linecap:butt;stroke-linejoin:miter;stroke-opacity:1"
       d="m 58.886158,114.26114 0.0014,-0.99449 1.163993,-0.0109"
       id="path1900"
       inkscape:connector-curvature="0"
       sodipodi:nodetypes="ccc" />
    <g
       id="g1921">
      <path
         sodipodi:nodetypes="ccc"
         inkscape:connector-curvature="0"
         id="path1902"
         d="m 58.823811,117.63267 0.0046,1.40755 1.252083,-0.002"
         style="fill:none;stroke:#000000;stroke-width:0.26458332px;stroke-linecap:butt;stroke-linejoin:miter;stroke-opacity:1" />
      <path
         inkscape:connector-curvature="0"
         id="path1914"
         d="m 58.977278,118.75765 c 0.0041,0.18603 0.02066,0.1819 0.02066,0.1819"
         style="fill:none;stroke:#000000;stroke-width:0.26458332px;stroke-linecap:butt;stroke-linejoin:miter;stroke-opacity:1" />
      <path
         inkscape:connector-curvature="0"
         id="path1916"
         d="m 59.130239,118.67083 -0.132302,0.26872"
         style="fill:none;stroke:#000000;stroke-width:0.26458332px;stroke-linecap:butt;stroke-linejoin:miter;stroke-opacity:1" />
    </g>
    <g
       id="g1931">
      <g
         transform="translate(0,0.75595238)"
         id="g1882">
        <path
           style="font-style:normal;font-variant:normal;font-weight:900;font-stretch:normal;font-size:25.39999962px;line-height:1.25;font-family:Arial;-inkscape-font-specification:'Arial Heavy';letter-spacing:0px;word-spacing:0px;fill:#000000;fill-opacity:1;stroke:none;stroke-width:0.26458332"
           d="m 67.145623,110.24097 -0.537951,1.4304 a 6.0476193,5.4806542 0 0 1 1.806091,3.90002 6.0476193,5.4806542 0 0 1 -5.313886,5.43326 l -2.787944,7.41815 h 5.742284 l 0.880568,-3.00136 h 6.399609 l 0.892969,3.00136 h 5.878711 l -6.833693,-18.18183 z m 3.001367,4.71289 2.00918,6.53603 h -4.005956 z"
           id="text829"
           inkscape:connector-curvature="0" />
        <g
           id="g1905">
          <g
             style="fill:#000000"
             id="g1908">
            <path
               style="opacity:1;fill:#000000;fill-opacity:1;stroke:#000000;stroke-width:2;stroke-linejoin:round;stroke-miterlimit:4;stroke-dasharray:none;stroke-opacity:1;paint-order:markers fill stroke"
               d="m 59.747753,113.36961 c 0.02651,0.85975 -0.02183,1.58915 -0.02737,2.39055 0.0058,0.55671 -0.04991,0.59815 -0.02714,1.64163 l 1.133536,0.0234 c 1.082908,0.0223 1.843815,-0.18604 2.282032,-0.55811 0.438216,-0.38034 0.657325,-0.86403 0.657325,-1.45107 0,-0.57051 -0.190169,-1.0542 -0.570508,-1.45108 -0.380338,-0.39687 -1.095541,-0.59531 -2.145607,-0.59531 z"
               id="path839"
               inkscape:connector-curvature="0"
               sodipodi:nodetypes="cccscscsc" />
          </g>
        </g>
      </g>
      <path
         inkscape:connector-curvature="0"
         id="path1923"
         d="m 59.023551,113.36662 c 0.038,0.18709 0.038,0.18709 0.038,0.18709 l 0.06139,-0.13739"
         style="fill:none;stroke:#000000;stroke-width:0.26458332px;stroke-linecap:butt;stroke-linejoin:miter;stroke-opacity:1" />
    </g>
  </g>
</svg>
